<svg width="203" height="241" viewBox="0 0 203 241" fill="none" xmlns="http://www.w3.org/2000/svg">
<path d="M191.901 149.193C191.901 196.735 150.403 235.873 98.4506 235.873C46.4978 235.873 5.00003 196.735 5.00003 149.193C5.00003 101.65 46.4978 62.5123 98.4506 62.5123C150.403 62.5123 191.901 101.65 191.901 149.193Z" fill="#F39844" stroke="black" stroke-width="10"/>
<path d="M157.873 79.4282C145.364 93.9622 131.594 100.834 121.053 104.104C115.763 105.745 111.269 106.484 108.138 106.813C107.815 106.847 107.507 106.877 107.214 106.902C107.112 106.428 107.006 105.91 106.901 105.35C106.279 102.031 105.676 97.297 105.774 91.7088C105.969 80.5287 108.956 66.1196 119.997 52.6782C131.083 39.1816 146.335 31.467 159.081 27.123C165.425 24.9607 171.059 23.6646 175.091 22.9115C175.587 22.819 176.057 22.7348 176.502 22.6582C176.524 22.9143 176.545 23.1801 176.566 23.4556C176.825 26.9357 176.914 31.9156 176.219 37.8145C174.83 49.6135 170.321 64.9651 157.873 79.4282Z" fill="#53CC67" stroke="black" stroke-width="10"/>
</svg>
